<svg width="338" height="458" viewBox="0 0 338 458" fill="none" xmlns="http://www.w3.org/2000/svg">
<rect width="338" height="458" fill="white"/>
<rect x="37" y="108" width="265" height="66" fill="#C4C4C4"/>
<path d="M56.1152 134.66V138H54.9902V129.469H58.1367C59.0703 129.469 59.8008 129.707 60.3281 130.184C60.8594 130.66 61.125 131.291 61.125 132.076C61.125 132.904 60.8652 133.543 60.3457 133.992C59.8301 134.438 59.0898 134.66 58.125 134.66H56.1152ZM56.1152 133.74H58.1367C58.7383 133.74 59.1992 133.6 59.5195 133.318C59.8398 133.033 60 132.623 60 132.088C60 131.58 59.8398 131.174 59.5195 130.869C59.1992 130.564 58.7598 130.406 58.2012 130.395H56.1152V133.74ZM66.2344 138C66.1719 137.875 66.1211 137.652 66.082 137.332C65.5781 137.855 64.9766 138.117 64.2773 138.117C63.6523 138.117 63.1387 137.941 62.7363 137.59C62.3379 137.234 62.1387 136.785 62.1387 136.242C62.1387 135.582 62.3887 135.07 62.8887 134.707C63.3926 134.34 64.0996 134.156 65.0098 134.156H66.0645V133.658C66.0645 133.279 65.9512 132.979 65.7246 132.756C65.498 132.529 65.1641 132.416 64.7227 132.416C64.3359 132.416 64.0117 132.514 63.75 132.709C63.4883 132.904 63.3574 133.141 63.3574 133.418H62.2676C62.2676 133.102 62.3789 132.797 62.6016 132.504C62.8281 132.207 63.1328 131.973 63.5156 131.801C63.9023 131.629 64.3262 131.543 64.7871 131.543C65.5176 131.543 66.0898 131.727 66.5039 132.094C66.918 132.457 67.1328 132.959 67.1484 133.6V136.518C67.1484 137.1 67.2227 137.562 67.3711 137.906V138H66.2344ZM64.4355 137.174C64.7754 137.174 65.0977 137.086 65.4023 136.91C65.707 136.734 65.9277 136.506 66.0645 136.225V134.924H65.2148C63.8867 134.924 63.2227 135.312 63.2227 136.09C63.2227 136.43 63.3359 136.695 63.5625 136.887C63.7891 137.078 64.0801 137.174 64.4355 137.174ZM70.0254 138H68.9414V129H70.0254V138ZM75.6797 138C75.6172 137.875 75.5664 137.652 75.5273 137.332C75.0234 137.855 74.4219 138.117 73.7227 138.117C73.0977 138.117 72.584 137.941 72.1816 137.59C71.7832 137.234 71.584 136.785 71.584 136.242C71.584 135.582 71.834 135.07 72.334 134.707C72.8379 134.34 73.5449 134.156 74.4551 134.156H75.5098V133.658C75.5098 133.279 75.3965 132.979 75.1699 132.756C74.9434 132.529 74.6094 132.416 74.168 132.416C73.7812 132.416 73.457 132.514 73.1953 132.709C72.9336 132.904 72.8027 133.141 72.8027 133.418H71.7129C71.7129 133.102 71.8242 132.797 72.0469 132.504C72.2734 132.207 72.5781 131.973 72.9609 131.801C73.3477 131.629 73.7715 131.543 74.2324 131.543C74.9629 131.543 75.5352 131.727 75.9492 132.094C76.3633 132.457 76.5781 132.959 76.5938 133.6V136.518C76.5938 137.1 76.668 137.562 76.8164 137.906V138H75.6797ZM73.8809 137.174C74.2207 137.174 74.543 137.086 74.8477 136.91C75.1523 136.734 75.373 136.506 75.5098 136.225V134.924H74.6602C73.332 134.924 72.668 135.312 72.668 136.09C72.668 136.43 72.7812 136.695 73.0078 136.887C73.2344 137.078 73.5254 137.174 73.8809 137.174ZM81.9844 136.318C81.9844 136.025 81.873 135.799 81.6504 135.639C81.4316 135.475 81.0469 135.334 80.4961 135.217C79.9492 135.1 79.5137 134.959 79.1895 134.795C78.8691 134.631 78.6309 134.436 78.4746 134.209C78.3223 133.982 78.2461 133.713 78.2461 133.4C78.2461 132.881 78.4648 132.441 78.9023 132.082C79.3438 131.723 79.9062 131.543 80.5898 131.543C81.3086 131.543 81.8906 131.729 82.3359 132.1C82.7852 132.471 83.0098 132.945 83.0098 133.523H81.9199C81.9199 133.227 81.793 132.971 81.5391 132.756C81.2891 132.541 80.9727 132.434 80.5898 132.434C80.1953 132.434 79.8867 132.52 79.6641 132.691C79.4414 132.863 79.3301 133.088 79.3301 133.365C79.3301 133.627 79.4336 133.824 79.6406 133.957C79.8477 134.09 80.2207 134.217 80.7598 134.338C81.3027 134.459 81.7422 134.604 82.0781 134.771C82.4141 134.939 82.6621 135.143 82.8223 135.381C82.9863 135.615 83.0684 135.902 83.0684 136.242C83.0684 136.809 82.8418 137.264 82.3887 137.607C81.9355 137.947 81.3477 138.117 80.625 138.117C80.1172 138.117 79.668 138.027 79.2773 137.848C78.8867 137.668 78.5801 137.418 78.3574 137.098C78.1387 136.773 78.0293 136.424 78.0293 136.049H79.1133C79.1328 136.412 79.2773 136.701 79.5469 136.916C79.8203 137.127 80.1797 137.232 80.625 137.232C81.0352 137.232 81.3633 137.15 81.6094 136.986C81.8594 136.818 81.9844 136.596 81.9844 136.318ZM85.5645 132.428C86.0449 131.838 86.6699 131.543 87.4395 131.543C88.7793 131.543 89.4551 132.299 89.4668 133.811V138H88.3828V133.805C88.3789 133.348 88.2734 133.01 88.0664 132.791C87.8633 132.572 87.5449 132.463 87.1113 132.463C86.7598 132.463 86.4512 132.557 86.1855 132.744C85.9199 132.932 85.7129 133.178 85.5645 133.482V138H84.4805V129H85.5645V132.428Z" fill="black"/>
<path d="M265.417 127.275C265.569 127.045 265.506 126.735 265.275 126.583L261.518 124.106C261.288 123.954 260.978 124.017 260.826 124.248C260.674 124.478 260.737 124.788 260.968 124.94L264.307 127.142L262.106 130.482C261.954 130.712 262.017 131.022 262.248 131.174C262.478 131.326 262.788 131.263 262.94 131.032L265.417 127.275ZM114.101 158.49L265.101 127.49L264.899 126.51L113.899 157.51L114.101 158.49Z" fill="black"/>
</svg>
