<svg width="265" height="66" viewBox="0 0 265 66" fill="none" xmlns="http://www.w3.org/2000/svg">
<rect width="265" height="66" fill="#C4C4C4"/>
<path d="M19.1152 26.6602V30H17.9902V21.4688H21.1367C22.0703 21.4688 22.8008 21.707 23.3281 22.1836C23.8594 22.6602 24.125 23.291 24.125 24.0762C24.125 24.9043 23.8652 25.543 23.3457 25.9922C22.8301 26.4375 22.0898 26.6602 21.125 26.6602H19.1152ZM19.1152 25.7402H21.1367C21.7383 25.7402 22.1992 25.5996 22.5195 25.3184C22.8398 25.0332 23 24.623 23 24.0879C23 23.5801 22.8398 23.1738 22.5195 22.8691C22.1992 22.5645 21.7598 22.4062 21.2012 22.3945H19.1152V25.7402ZM29.2344 30C29.1719 29.875 29.1211 29.6523 29.082 29.332C28.5781 29.8555 27.9766 30.1172 27.2773 30.1172C26.6523 30.1172 26.1387 29.9414 25.7363 29.5898C25.3379 29.2344 25.1387 28.7852 25.1387 28.2422C25.1387 27.582 25.3887 27.0703 25.8887 26.707C26.3926 26.3398 27.0996 26.1562 28.0098 26.1562H29.0645V25.6582C29.0645 25.2793 28.9512 24.9785 28.7246 24.7559C28.498 24.5293 28.1641 24.416 27.7227 24.416C27.3359 24.416 27.0117 24.5137 26.75 24.709C26.4883 24.9043 26.3574 25.1406 26.3574 25.418H25.2676C25.2676 25.1016 25.3789 24.7969 25.6016 24.5039C25.8281 24.207 26.1328 23.9727 26.5156 23.8008C26.9023 23.6289 27.3262 23.543 27.7871 23.543C28.5176 23.543 29.0898 23.7266 29.5039 24.0938C29.918 24.457 30.1328 24.959 30.1484 25.5996V28.5176C30.1484 29.0996 30.2227 29.5625 30.3711 29.9062V30H29.2344ZM27.4355 29.1738C27.7754 29.1738 28.0977 29.0859 28.4023 28.9102C28.707 28.7344 28.9277 28.5059 29.0645 28.2246V26.9238H28.2148C26.8867 26.9238 26.2227 27.3125 26.2227 28.0898C26.2227 28.4297 26.3359 28.6953 26.5625 28.8867C26.7891 29.0781 27.0801 29.1738 27.4355 29.1738ZM33.0254 30H31.9414V21H33.0254V30ZM38.6797 30C38.6172 29.875 38.5664 29.6523 38.5273 29.332C38.0234 29.8555 37.4219 30.1172 36.7227 30.1172C36.0977 30.1172 35.584 29.9414 35.1816 29.5898C34.7832 29.2344 34.584 28.7852 34.584 28.2422C34.584 27.582 34.834 27.0703 35.334 26.707C35.8379 26.3398 36.5449 26.1562 37.4551 26.1562H38.5098V25.6582C38.5098 25.2793 38.3965 24.9785 38.1699 24.7559C37.9434 24.5293 37.6094 24.416 37.168 24.416C36.7812 24.416 36.457 24.5137 36.1953 24.709C35.9336 24.9043 35.8027 25.1406 35.8027 25.418H34.7129C34.7129 25.1016 34.8242 24.7969 35.0469 24.5039C35.2734 24.207 35.5781 23.9727 35.9609 23.8008C36.3477 23.6289 36.7715 23.543 37.2324 23.543C37.9629 23.543 38.5352 23.7266 38.9492 24.0938C39.3633 24.457 39.5781 24.959 39.5938 25.5996V28.5176C39.5938 29.0996 39.668 29.5625 39.8164 29.9062V30H38.6797ZM36.8809 29.1738C37.2207 29.1738 37.543 29.0859 37.8477 28.9102C38.1523 28.7344 38.373 28.5059 38.5098 28.2246V26.9238H37.6602C36.332 26.9238 35.668 27.3125 35.668 28.0898C35.668 28.4297 35.7812 28.6953 36.0078 28.8867C36.2344 29.0781 36.5254 29.1738 36.8809 29.1738ZM44.9844 28.3184C44.9844 28.0254 44.873 27.7988 44.6504 27.6387C44.4316 27.4746 44.0469 27.334 43.4961 27.2168C42.9492 27.0996 42.5137 26.959 42.1895 26.7949C41.8691 26.6309 41.6309 26.4355 41.4746 26.209C41.3223 25.9824 41.2461 25.7129 41.2461 25.4004C41.2461 24.8809 41.4648 24.4414 41.9023 24.082C42.3438 23.7227 42.9062 23.543 43.5898 23.543C44.3086 23.543 44.8906 23.7285 45.3359 24.0996C45.7852 24.4707 46.0098 24.9453 46.0098 25.5234H44.9199C44.9199 25.2266 44.793 24.9707 44.5391 24.7559C44.2891 24.541 43.9727 24.4336 43.5898 24.4336C43.1953 24.4336 42.8867 24.5195 42.6641 24.6914C42.4414 24.8633 42.3301 25.0879 42.3301 25.3652C42.3301 25.627 42.4336 25.8242 42.6406 25.957C42.8477 26.0898 43.2207 26.2168 43.7598 26.3379C44.3027 26.459 44.7422 26.6035 45.0781 26.7715C45.4141 26.9395 45.6621 27.1426 45.8223 27.3809C45.9863 27.6152 46.0684 27.9023 46.0684 28.2422C46.0684 28.8086 45.8418 29.2637 45.3887 29.6074C44.9355 29.9473 44.3477 30.1172 43.625 30.1172C43.1172 30.1172 42.668 30.0273 42.2773 29.8477C41.8867 29.668 41.5801 29.418 41.3574 29.0977C41.1387 28.7734 41.0293 28.4238 41.0293 28.0488H42.1133C42.1328 28.4121 42.2773 28.7012 42.5469 28.916C42.8203 29.127 43.1797 29.2324 43.625 29.2324C44.0352 29.2324 44.3633 29.1504 44.6094 28.9863C44.8594 28.8184 44.9844 28.5957 44.9844 28.3184ZM48.5645 24.4277C49.0449 23.8379 49.6699 23.543 50.4395 23.543C51.7793 23.543 52.4551 24.2988 52.4668 25.8105V30H51.3828V25.8047C51.3789 25.3477 51.2734 25.0098 51.0664 24.791C50.8633 24.5723 50.5449 24.4629 50.1113 24.4629C49.7598 24.4629 49.4512 24.5566 49.1855 24.7441C48.9199 24.9316 48.7129 25.1777 48.5645 25.4824V30H47.4805V21H48.5645V24.4277Z" fill="black"/>
<path d="M228.417 19.2752C228.569 19.0447 228.506 18.7346 228.275 18.5826L224.518 16.1055C224.288 15.9535 223.978 16.0172 223.826 16.2477C223.674 16.4782 223.737 16.7884 223.968 16.9404L227.307 19.1422L225.106 22.4817C224.954 22.7122 225.017 23.0223 225.248 23.1743C225.478 23.3263 225.788 23.2627 225.94 23.0321L228.417 19.2752ZM77.1006 50.4898L228.101 19.4898L227.899 18.5102L76.8994 49.5102L77.1006 50.4898Z" fill="black"/>
</svg>
